<svg width="48" height="47" viewBox="0 0 48 47" fill="none" xmlns="http://www.w3.org/2000/svg">
<path d="M31.467 23.498C31.467 19.3792 28.1159 16.0281 23.9971 16.0281C19.8782 16.0281 16.5271 19.3792 16.5271 23.498C16.5271 27.6169 19.8782 30.968 23.9971 30.968C28.1159 30.968 31.467 27.6169 31.467 23.498ZM23.9971 24.8162C23.2702 24.8162 22.6789 24.2249 22.6789 23.498C22.6789 22.7712 23.2703 22.1798 23.9971 22.1798C24.724 22.1798 25.3153 22.7712 25.3153 23.498C25.3153 24.2249 24.724 24.8162 23.9971 24.8162Z" fill="black"/>
<path d="M21.1856 28.4693C22.0161 28.9407 22.9758 29.2103 23.9971 29.2103C25.0185 29.2103 25.9782 28.9407 26.8087 28.4693M26.0956 25.7447C26.9142 26.1022 27.6377 26.663 28.1863 27.3777C29.131 26.3583 29.7095 24.9945 29.7095 23.498C29.7095 20.3481 27.1467 17.7857 23.9971 17.7857C20.8472 17.7857 18.2848 20.3484 18.2848 23.498C18.2848 24.9945 18.8636 26.3579 19.8083 27.3774C20.3569 26.6631 21.0804 26.1019 21.8987 25.7447C21.2976 25.1829 20.9213 24.3837 20.9213 23.498C20.9213 21.802 22.3011 20.4222 23.9971 20.4222M31.467 23.498C31.467 19.3792 28.1159 16.0281 23.9971 16.0281C19.8782 16.0281 16.5271 19.3792 16.5271 23.498C16.5271 27.6169 19.8782 30.968 23.9971 30.968C28.1159 30.968 31.467 27.6169 31.467 23.498ZM23.9971 24.8162C23.2702 24.8162 22.6789 24.2249 22.6789 23.498C22.6789 22.7712 23.2703 22.1798 23.9971 22.1798C24.724 22.1798 25.3153 22.7712 25.3153 23.498C25.3153 24.2249 24.724 24.8162 23.9971 24.8162Z" stroke="black" strokeWidth="1.5"/>
<path d="M36.3007 23.498C36.3007 16.7138 30.7814 11.1949 23.9976 11.1949C17.2138 11.1949 11.6946 16.7142 11.6946 23.498C11.6946 30.2818 17.2138 35.801 23.9976 35.801C30.7814 35.801 36.3007 30.2818 36.3007 23.498ZM13.451 23.498C13.451 17.683 18.1819 12.9522 23.9968 12.9522C29.8118 12.9522 34.5426 17.683 34.5426 23.498C34.5426 29.3129 29.8118 34.0438 23.9968 34.0438C18.1819 34.0438 13.451 29.3129 13.451 23.498Z" fill="black" stroke="black" strokeWidth="1.5"/>
<path d="M6.7385 14.5482C6.87691 14.6282 7.02788 14.6662 7.17696 14.6662C7.48078 14.6662 7.77612 14.5087 7.93871 14.2265C10.7321 9.38827 15.6255 6.04455 21.1256 5.17839C21.57 6.33156 22.6896 7.15168 23.9971 7.15168C25.6932 7.15168 27.0729 5.77193 27.0729 4.07584C27.0729 2.37975 25.6932 1 23.9971 1C22.5257 1 21.2922 2.03859 20.9912 3.42083C18.0873 3.85711 15.2755 4.93212 12.8246 6.54786C10.2025 8.27632 7.98668 10.6274 6.41642 13.3471C6.1738 13.7676 6.31786 14.305 6.73813 14.5476L6.7385 14.5482ZM23.9975 2.75779C24.7244 2.75779 25.3157 3.34911 25.3157 4.07599C25.3157 4.80288 24.7243 5.3942 23.9975 5.3942C23.2706 5.3942 22.6793 4.80288 22.6793 4.07599C22.6793 3.34911 23.2706 2.75779 23.9975 2.75779Z" fill="black" stroke="black" strokeWidth="1.5"/>
<path d="M14.7257 39.5565C9.88715 36.7631 6.54294 31.8696 5.67839 26.3696C6.83124 25.9255 7.65168 24.8056 7.65168 23.4981C7.65168 21.802 6.27193 20.4222 4.57584 20.4222C2.87975 20.4222 1.5 21.802 1.5 23.4981C1.5 24.9694 2.53859 26.2029 3.92083 26.5036C4.35711 29.4075 5.43212 32.2194 7.04786 34.6703C8.77632 37.2923 11.1274 39.5082 13.8471 41.0784C13.9855 41.1585 14.1365 41.1965 14.2855 41.1965C14.5893 41.1965 14.8847 41.0389 15.0473 40.7567C15.2899 40.3365 15.1458 39.7991 14.7256 39.5562L14.7257 39.5565ZM3.25747 23.4979C3.25747 22.771 3.84879 22.1797 4.57568 22.1797C5.30256 22.1797 5.89388 22.771 5.89388 23.4979C5.89388 24.2248 5.30256 24.8161 4.57568 24.8161C3.84879 24.8161 3.25747 24.2248 3.25747 23.4979Z" fill="black" stroke="black" strokeWidth="1.5"/>
<path d="M41.2561 32.4484C40.8355 32.2058 40.2982 32.3498 40.0556 32.7701C37.2622 37.6086 32.3688 40.9529 26.8687 41.8182C26.4246 40.6654 25.3047 39.8449 23.9972 39.8449C22.3011 39.8449 20.9214 41.2247 20.9214 42.9208C20.9214 44.6168 22.3011 45.9966 23.9972 45.9966C25.4686 45.9966 26.7021 44.958 27.0031 43.5758C29.907 43.1395 32.7189 42.0645 35.1698 40.4487C37.7918 38.7203 40.0076 36.3692 41.5779 33.6495C41.8205 33.2293 41.6765 32.6916 41.2562 32.449L41.2561 32.4484ZM23.9971 44.2388C23.2702 44.2388 22.6789 43.6475 22.6789 42.9206C22.6789 42.1937 23.2703 41.6024 23.9971 41.6024C24.724 41.6024 25.3154 42.1937 25.3154 42.9206C25.3154 43.6475 24.724 44.2388 23.9971 44.2388Z" fill="black" stroke="black" strokeWidth="1.5"/>
<path d="M44.0741 20.4923C43.6379 17.5884 42.5628 14.7766 40.9471 12.3257C39.2186 9.70364 36.8676 7.48778 34.1479 5.91752C33.7273 5.6749 33.19 5.81896 32.9474 6.23922C32.7048 6.65949 32.8488 7.19682 33.2691 7.43972C38.1076 10.2331 41.4519 15.1265 42.3172 20.6266C41.1644 21.0707 40.3439 22.1906 40.3439 23.4981C40.3439 25.1942 41.7237 26.5739 43.4198 26.5739C45.1158 26.5739 46.4956 25.1942 46.4956 23.4981C46.4956 22.0268 45.457 20.7932 44.0748 20.4922L44.0741 20.4923ZM43.4191 24.8161C42.6922 24.8161 42.1009 24.2248 42.1009 23.4979C42.1009 22.771 42.6922 22.1797 43.4191 22.1797C44.146 22.1797 44.7373 22.771 44.7373 23.4979C44.7373 24.2248 44.146 24.8161 43.4191 24.8161Z" fill="black" stroke="black" strokeWidth="1.5"/>
</svg>
