<svg width="23" height="23" viewBox="0 0 23 23" fill="none" xmlns="http://www.w3.org/2000/svg">
<g clipPath="url(#clip0_246_6168)">
<path d="M14.2695 6.00008H18.8529V7.83342H17.0195V19.7501C17.0195 20.0067 16.9309 20.2237 16.7537 20.4009C16.5765 20.5781 16.3595 20.6667 16.1029 20.6667H3.26953C3.01286 20.6667 2.79592 20.5781 2.6187 20.4009C2.44148 20.2237 2.35286 20.0067 2.35286 19.7501V7.83342H0.519531V6.00008H5.10286V3.25008C5.10286 2.99342 5.19148 2.77647 5.3687 2.59925C5.54592 2.42203 5.76286 2.33342 6.01953 2.33342H13.3529C13.6095 2.33342 13.8265 2.42203 14.0037 2.59925C14.1809 2.77647 14.2695 2.99342 14.2695 3.25008V6.00008ZM15.1862 7.83342H4.1862V18.8334H15.1862V7.83342ZM6.9362 10.5834H8.76953V16.0834H6.9362V10.5834ZM10.6029 10.5834H12.4362V16.0834H10.6029V10.5834ZM6.9362 4.16675V6.00008H12.4362V4.16675H6.9362Z" fill="#555555"/>
</g>
<defs>
<clipPath id="clip0_246_6168">
<rect width="22.48" height="22" fill="white" transform="matrix(1 0 0 -1 0.519531 22.5)"/>
</clipPath>
</defs>
</svg>
